<svg width="41" height="9" viewBox="0 0 41 9" fill="none" xmlns="http://www.w3.org/2000/svg">
<path d="M0.56 7.9V7.25C0.72 7.11 0.97 6.89333 1.31 6.6C1.65667 6.30667 1.91333 6.08667 2.08 5.94C2.24667 5.78667 2.46667 5.58333 2.74 5.33C3.01333 5.07 3.22 4.85333 3.36 4.68C3.50667 4.50667 3.65667 4.30667 3.81 4.08C4.09667 3.65333 4.24 3.23333 4.24 2.82C4.24 2.4 4.13 2.06333 3.91 1.81C3.69667 1.55667 3.35667 1.43 2.89 1.43C2.43 1.43 2.07667 1.57333 1.83 1.86C1.58333 2.14 1.45 2.51333 1.43 2.98H0.56C0.586667 2.23333 0.81 1.66 1.23 1.26C1.65667 0.853333 2.20667 0.65 2.88 0.65C3.56 0.65 4.10333 0.843333 4.51 1.23C4.92333 1.61 5.13 2.13 5.13 2.79C5.13 3.58333 4.74333 4.4 3.97 5.24C3.69 5.54 3.47333 5.76 3.32 5.9C2.89333 6.31333 2.43667 6.72333 1.95 7.13H5.35V7.9H0.56ZM9.99102 5.6V1.64L7.30102 5.6H9.99102ZM9.96102 8V6.38H6.24102V5.74L9.68102 0.8H10.841V5.6H11.811V6.38H10.841V8H9.96102ZM16.7889 2.51L15.0189 5.25L16.7789 8H15.7489L14.4489 5.96L13.2389 8H12.2489L14.0189 5.28L12.2489 2.51H13.2789L14.5889 4.56L15.8089 2.51H16.7889ZM18.2443 8V1.71H17.4243V0.9H19.1343V8H18.2443ZM21.8072 2.9C21.8072 3.37333 21.9405 3.75667 22.2072 4.05C22.4805 4.34333 22.8639 4.49 23.3572 4.49C23.8572 4.49 24.2339 4.35 24.4872 4.07C24.7405 3.79 24.8672 3.40333 24.8672 2.91C24.8672 2.41667 24.7305 2.02667 24.4572 1.74C24.1905 1.44667 23.8205 1.3 23.3472 1.3C22.8739 1.3 22.4972 1.44667 22.2172 1.74C21.9439 2.03333 21.8072 2.42 21.8072 2.9ZM23.4572 7.22C23.9905 7.22 24.3805 7.01667 24.6272 6.61C24.8739 6.19667 24.9972 5.47667 24.9972 4.45C24.8239 4.71667 24.5805 4.92 24.2672 5.06C23.9605 5.2 23.6272 5.27 23.2672 5.27C22.6072 5.27 22.0539 5.06333 21.6072 4.65C21.1672 4.23 20.9472 3.65667 20.9472 2.93C20.9472 2.20333 21.1572 1.62333 21.5772 1.19C21.9972 0.75 22.5805 0.53 23.3272 0.53C24.2005 0.53 24.8272 0.83 25.2072 1.43C25.5872 2.02333 25.7772 2.96 25.7772 4.24C25.7772 5.51333 25.6005 6.45667 25.2472 7.07C24.9005 7.68333 24.2872 7.99 23.4072 7.99C22.7339 7.99 22.2072 7.81333 21.8272 7.46C21.4472 7.10667 21.2205 6.66333 21.1472 6.13H21.9772C22.1305 6.85667 22.6239 7.22 23.4572 7.22ZM31.1248 2.51L29.3548 5.25L31.1148 8H30.0848L28.7848 5.96L27.5748 8H26.5848L28.3548 5.28L26.5848 2.51H27.6148L28.9248 4.56L30.1448 2.51H31.1248ZM32.5802 8V1.71H31.7602V0.9H33.4702V8H32.5802ZM39.2931 5.93C39.2931 5.47 39.1398 5.12 38.8331 4.88C38.5265 4.63333 38.1231 4.51 37.6231 4.51C37.1298 4.51 36.7265 4.63333 36.4131 4.88C36.0998 5.12 35.9431 5.47333 35.9431 5.94C35.9431 6.4 36.0931 6.76333 36.3931 7.03C36.6998 7.29667 37.1098 7.43 37.6231 7.43C38.1365 7.43 38.5431 7.29667 38.8431 7.03C39.1431 6.75667 39.2931 6.39 39.2931 5.93ZM39.1131 2.5C39.1131 2.11333 38.9798 1.81 38.7131 1.59C38.4531 1.36333 38.0898 1.25 37.6231 1.25C37.1631 1.25 36.7998 1.36333 36.5331 1.59C36.2665 1.81 36.1331 2.11333 36.1331 2.5C36.1331 2.88667 36.2698 3.2 36.5431 3.44C36.8231 3.67333 37.1831 3.79 37.6231 3.79C38.0631 3.79 38.4198 3.67333 38.6931 3.44C38.9731 3.2 39.1131 2.88667 39.1131 2.5ZM35.2731 2.44C35.2731 1.87333 35.4765 1.40667 35.8831 1.04C36.2965 0.666666 36.8765 0.48 37.6231 0.48C38.3765 0.48 38.9565 0.666666 39.3631 1.04C39.7698 1.41333 39.9731 1.88333 39.9731 2.45C39.9731 2.83667 39.8731 3.17667 39.6731 3.47C39.4731 3.75667 39.2131 3.97 38.8931 4.11C39.2731 4.23667 39.5798 4.46667 39.8131 4.8C40.0465 5.12667 40.1631 5.52 40.1631 5.98C40.1631 6.65333 39.9298 7.19333 39.4631 7.6C38.9965 8 38.3831 8.2 37.6231 8.2C36.8631 8.2 36.2498 8 35.7831 7.6C35.3165 7.19333 35.0831 6.65333 35.0831 5.98C35.0831 5.52 35.1998 5.12667 35.4331 4.8C35.6665 4.46667 35.9765 4.23667 36.3631 4.11C35.6365 3.76333 35.2731 3.20667 35.2731 2.44Z" fill="#633820"/>
</svg>
