<svg width="37" height="9" viewBox="0 0 37 9" fill="none" xmlns="http://www.w3.org/2000/svg">
<path d="M0.9 0.69H5.23V1.48H1.74V3.77C1.88667 3.55 2.11 3.36667 2.41 3.22C2.71 3.07333 3.05 3 3.43 3C3.81667 3 4.16667 3.07333 4.48 3.22C4.8 3.36 5.04667 3.55333 5.22 3.8C5.54667 4.28 5.71 4.82667 5.71 5.44C5.71 6.19333 5.5 6.81 5.08 7.29C4.66 7.76333 4.07 8 3.31 8C2.55667 8 1.96333 7.82333 1.53 7.47C1.10333 7.11667 0.836667 6.65 0.73 6.07H1.6C1.69333 6.43 1.88333 6.71333 2.17 6.92C2.46333 7.12667 2.84667 7.23 3.32 7.23C3.8 7.23 4.17333 7.07 4.44 6.75C4.71333 6.43 4.85 6 4.85 5.46C4.85 4.92 4.71333 4.50667 4.44 4.22C4.17333 3.92667 3.77333 3.78 3.24 3.78C2.88 3.78 2.57 3.87333 2.31 4.06C2.05 4.24667 1.85667 4.5 1.73 4.82H0.9V0.69ZM12.6559 8H11.7459V5.38L9.48594 1.07H10.4859L12.1959 4.54L13.8959 1.07H14.9059L12.6559 5.38V8ZM18.1086 8.09C17.3219 8.09 16.6819 7.83 16.1886 7.31C15.6953 6.79 15.4486 6.10333 15.4486 5.25C15.4486 4.39667 15.6986 3.71333 16.1986 3.2C16.6986 2.68 17.3453 2.42 18.1386 2.42C18.9386 2.42 19.5786 2.66667 20.0586 3.16C20.5453 3.64667 20.7886 4.27 20.7886 5.03C20.7886 5.22333 20.7753 5.40333 20.7486 5.57H16.3786C16.4053 6.11667 16.5753 6.55 16.8886 6.87C17.2086 7.18333 17.6153 7.34 18.1086 7.34C18.4819 7.34 18.7953 7.25667 19.0486 7.09C19.3086 6.92333 19.4986 6.70333 19.6186 6.43H20.5986C20.4253 6.91 20.1253 7.30667 19.6986 7.62C19.2786 7.93333 18.7486 8.09 18.1086 8.09ZM19.8386 4.91C19.8319 4.38333 19.6653 3.96333 19.3386 3.65C19.0119 3.33 18.6053 3.17 18.1186 3.17C17.6386 3.17 17.2386 3.32667 16.9186 3.64C16.5986 3.94667 16.4219 4.37 16.3886 4.91H19.8386ZM25.6519 6.75C26.0185 6.37667 26.2019 5.88 26.2019 5.26C26.2019 4.64 26.0185 4.14333 25.6519 3.77C25.2919 3.39667 24.8552 3.21 24.3419 3.21C23.8352 3.21 23.3985 3.39 23.0319 3.75C22.6719 4.11 22.4919 4.6 22.4919 5.22C22.4919 5.84 22.6752 6.34333 23.0419 6.73C23.4085 7.11667 23.8452 7.31 24.3519 7.31C24.8585 7.31 25.2919 7.12333 25.6519 6.75ZM24.1819 8.09C23.4352 8.09 22.8119 7.82333 22.3119 7.29C21.8119 6.75 21.5619 6.06333 21.5619 5.23C21.5619 4.39 21.8085 3.71333 22.3019 3.2C22.8019 2.68 23.4285 2.42 24.1819 2.42C24.6485 2.42 25.0552 2.53 25.4019 2.75C25.7552 2.97 26.0219 3.25667 26.2019 3.61V2.51H27.1219V8H26.2019V6.88C26.0219 7.24 25.7552 7.53333 25.4019 7.76C25.0552 7.98 24.6485 8.09 24.1819 8.09ZM29.5311 2.51V3.44C29.8578 2.76 30.4144 2.42 31.2011 2.42V3.37H30.9611C30.4944 3.37 30.1378 3.49333 29.8911 3.74C29.6511 3.98 29.5311 4.4 29.5311 5V8H28.6211V2.51H29.5311ZM32.1027 4.06C32.1027 3.6 32.2927 3.21333 32.6727 2.9C33.0594 2.58 33.5561 2.42 34.1627 2.42C34.7761 2.42 35.2561 2.57667 35.6027 2.89C35.9494 3.19667 36.1394 3.62 36.1727 4.16H35.2327C35.2194 3.85333 35.1161 3.60667 34.9227 3.42C34.7294 3.23333 34.4594 3.14 34.1127 3.14C33.7727 3.14 33.5027 3.22333 33.3027 3.39C33.1094 3.55 33.0127 3.76 33.0127 4.02C33.0127 4.27333 33.1227 4.47 33.3427 4.61C33.5694 4.75 33.8394 4.85333 34.1527 4.92C34.4727 4.98 34.7894 5.05333 35.1027 5.14C35.4227 5.22 35.6927 5.37667 35.9127 5.61C36.1394 5.83667 36.2527 6.16333 36.2527 6.59C36.2527 7.01 36.0594 7.36667 35.6727 7.66C35.2927 7.94667 34.7961 8.09 34.1827 8.09C33.5694 8.09 33.0761 7.93667 32.7027 7.63C32.3361 7.32333 32.1361 6.9 32.1027 6.36H33.0427C33.0561 6.66667 33.1627 6.91333 33.3627 7.1C33.5694 7.28 33.8494 7.37 34.2027 7.37C34.5627 7.37 34.8427 7.29333 35.0427 7.14C35.2494 6.98667 35.3527 6.79333 35.3527 6.56C35.3527 6.32 35.2727 6.13 35.1127 5.99C34.9527 5.85 34.7527 5.75333 34.5127 5.7C34.2727 5.64667 34.0094 5.58333 33.7227 5.51C33.4427 5.43667 33.1827 5.36 32.9427 5.28C32.7027 5.19333 32.5027 5.04667 32.3427 4.84C32.1827 4.63333 32.1027 4.37333 32.1027 4.06Z" fill="#633820"/>
</svg>
