<svg width="48" height="9" viewBox="0 0 48 9" fill="none" xmlns="http://www.w3.org/2000/svg">
<path d="M0.75 8V1.07H1.66V8H0.75ZM4.07211 2.51V3.4C4.44544 2.74667 5.04211 2.42 5.86211 2.42C6.46878 2.42 6.97544 2.62333 7.38211 3.03C7.78878 3.43 7.99211 4.00333 7.99211 4.75V8H7.09211V4.9C7.09211 4.34667 6.95878 3.92667 6.69211 3.64C6.42544 3.35333 6.05544 3.21 5.58211 3.21C5.11544 3.21 4.74544 3.35333 4.47211 3.64C4.20544 3.92667 4.07211 4.34667 4.07211 4.9V8H3.16211V2.51H4.07211ZM13.1714 6.75C13.5381 6.37667 13.7214 5.88 13.7214 5.26C13.7214 4.64 13.5381 4.14333 13.1714 3.77C12.8114 3.39667 12.3747 3.21 11.8614 3.21C11.3547 3.21 10.9181 3.39 10.5514 3.75C10.1914 4.11 10.0114 4.6 10.0114 5.22C10.0114 5.84 10.1947 6.34333 10.5614 6.73C10.9281 7.11667 11.3647 7.31 11.8714 7.31C12.3781 7.31 12.8114 7.12333 13.1714 6.75ZM11.7014 8.09C10.9547 8.09 10.3314 7.82333 9.83141 7.29C9.33141 6.75 9.08141 6.06333 9.08141 5.23C9.08141 4.39 9.32807 3.71333 9.82141 3.2C10.3214 2.68 10.9481 2.42 11.7014 2.42C12.1681 2.42 12.5747 2.53 12.9214 2.75C13.2747 2.97 13.5414 3.25667 13.7214 3.61V0.6H14.6414V8H13.7214V6.88C13.5414 7.24 13.2747 7.53333 12.9214 7.76C12.5747 7.98 12.1681 8.09 11.7014 8.09ZM18.4806 7.34C18.994 7.34 19.4373 7.15667 19.8106 6.79C20.1906 6.41667 20.3806 5.90333 20.3806 5.25C20.3806 4.59667 20.2006 4.08667 19.8406 3.72C19.4806 3.35333 19.0406 3.17 18.5206 3.17C18.0073 3.17 17.5773 3.35333 17.2306 3.72C16.884 4.08667 16.7106 4.6 16.7106 5.26C16.7106 5.91333 16.8773 6.42333 17.2106 6.79C17.544 7.15667 17.9673 7.34 18.4806 7.34ZM16.5306 7.31C16.0306 6.79 15.7806 6.10667 15.7806 5.26C15.7806 4.41333 16.044 3.73 16.5706 3.21C17.0973 2.68333 17.7573 2.42 18.5506 2.42C19.344 2.42 20.004 2.68333 20.5306 3.21C21.0573 3.73 21.3206 4.41333 21.3206 5.26C21.3206 6.1 21.044 6.78333 20.4906 7.31C19.944 7.83 19.274 8.09 18.4806 8.09C17.6873 8.09 17.0373 7.83 16.5306 7.31ZM23.369 2.51V3.4C23.7423 2.74667 24.339 2.42 25.159 2.42C25.7657 2.42 26.2723 2.62333 26.679 3.03C27.0857 3.43 27.289 4.00333 27.289 4.75V8H26.389V4.9C26.389 4.34667 26.2557 3.92667 25.989 3.64C25.7223 3.35333 25.3523 3.21 24.879 3.21C24.4123 3.21 24.0423 3.35333 23.769 3.64C23.5023 3.92667 23.369 4.34667 23.369 4.9V8H22.459V2.51H23.369ZM31.0383 8.09C30.2516 8.09 29.6116 7.83 29.1183 7.31C28.6249 6.79 28.3783 6.10333 28.3783 5.25C28.3783 4.39667 28.6283 3.71333 29.1283 3.2C29.6283 2.68 30.2749 2.42 31.0683 2.42C31.8683 2.42 32.5083 2.66667 32.9883 3.16C33.4749 3.64667 33.7183 4.27 33.7183 5.03C33.7183 5.22333 33.7049 5.40333 33.6783 5.57H29.3083C29.3349 6.11667 29.5049 6.55 29.8183 6.87C30.1383 7.18333 30.5449 7.34 31.0383 7.34C31.4116 7.34 31.7249 7.25667 31.9783 7.09C32.2383 6.92333 32.4283 6.70333 32.5483 6.43H33.5283C33.3549 6.91 33.0549 7.30667 32.6283 7.62C32.2083 7.93333 31.6783 8.09 31.0383 8.09ZM32.7683 4.91C32.7616 4.38333 32.5949 3.96333 32.2683 3.65C31.9416 3.33 31.5349 3.17 31.0483 3.17C30.5683 3.17 30.1683 3.32667 29.8483 3.64C29.5283 3.94667 29.3516 4.37 29.3183 4.91H32.7683ZM34.6516 4.06C34.6516 3.6 34.8416 3.21333 35.2216 2.9C35.6082 2.58 36.1049 2.42 36.7116 2.42C37.3249 2.42 37.8049 2.57667 38.1516 2.89C38.4982 3.19667 38.6882 3.62 38.7216 4.16H37.7816C37.7682 3.85333 37.6649 3.60667 37.4716 3.42C37.2782 3.23333 37.0082 3.14 36.6616 3.14C36.3216 3.14 36.0516 3.22333 35.8516 3.39C35.6582 3.55 35.5616 3.76 35.5616 4.02C35.5616 4.27333 35.6716 4.47 35.8916 4.61C36.1182 4.75 36.3882 4.85333 36.7016 4.92C37.0216 4.98 37.3382 5.05333 37.6516 5.14C37.9716 5.22 38.2416 5.37667 38.4616 5.61C38.6882 5.83667 38.8016 6.16333 38.8016 6.59C38.8016 7.01 38.6082 7.36667 38.2216 7.66C37.8416 7.94667 37.3449 8.09 36.7316 8.09C36.1182 8.09 35.6249 7.93667 35.2516 7.63C34.8849 7.32333 34.6849 6.9 34.6516 6.36H35.5916C35.6049 6.66667 35.7116 6.91333 35.9116 7.1C36.1182 7.28 36.3982 7.37 36.7516 7.37C37.1116 7.37 37.3916 7.29333 37.5916 7.14C37.7982 6.98667 37.9016 6.79333 37.9016 6.56C37.9016 6.32 37.8216 6.13 37.6616 5.99C37.5016 5.85 37.3016 5.75333 37.0616 5.7C36.8216 5.64667 36.5582 5.58333 36.2716 5.51C35.9916 5.43667 35.7316 5.36 35.4916 5.28C35.2516 5.19333 35.0516 5.04667 34.8916 4.84C34.7316 4.63333 34.6516 4.37333 34.6516 4.06ZM41.0152 1.45C40.8952 1.57 40.7486 1.63 40.5752 1.63C40.4019 1.63 40.2552 1.57 40.1352 1.45C40.0219 1.33 39.9652 1.18333 39.9652 1.01C39.9652 0.836666 40.0252 0.69 40.1452 0.57C40.2652 0.45 40.4086 0.39 40.5752 0.39C40.7486 0.39 40.8952 0.45 41.0152 0.57C41.1352 0.69 41.1952 0.836666 41.1952 1.01C41.1952 1.18333 41.1352 1.33 41.0152 1.45ZM40.1152 8V2.51H41.0252V8H40.1152ZM46.2573 6.75C46.624 6.37667 46.8073 5.88 46.8073 5.26C46.8073 4.64 46.624 4.14333 46.2573 3.77C45.8973 3.39667 45.4607 3.21 44.9473 3.21C44.4407 3.21 44.004 3.39 43.6373 3.75C43.2773 4.11 43.0973 4.6 43.0973 5.22C43.0973 5.84 43.2807 6.34333 43.6473 6.73C44.014 7.11667 44.4507 7.31 44.9573 7.31C45.464 7.31 45.8973 7.12333 46.2573 6.75ZM44.7873 8.09C44.0407 8.09 43.4173 7.82333 42.9173 7.29C42.4173 6.75 42.1673 6.06333 42.1673 5.23C42.1673 4.39 42.414 3.71333 42.9073 3.2C43.4073 2.68 44.034 2.42 44.7873 2.42C45.254 2.42 45.6607 2.53 46.0073 2.75C46.3607 2.97 46.6273 3.25667 46.8073 3.61V2.51H47.7273V8H46.8073V6.88C46.6273 7.24 46.3607 7.53333 46.0073 7.76C45.6607 7.98 45.254 8.09 44.7873 8.09Z" fill="#633820"/>
</svg>
