<svg width="50" height="9" viewBox="0 0 50 9" fill="none" xmlns="http://www.w3.org/2000/svg">
<path d="M3 1.07C3.78 1.07 4.37333 1.26 4.78 1.64C5.19333 2.02 5.4 2.50667 5.4 3.1C5.4 3.69333 5.2 4.18333 4.8 4.57C4.40667 4.95 3.80667 5.14 3 5.14H1.66V8H0.75V1.07H3ZM1.66 4.42H3C3.5 4.42 3.87 4.30667 4.11 4.08C4.35667 3.84667 4.48 3.52333 4.48 3.11C4.48 2.23667 3.98667 1.8 3 1.8H1.66V4.42ZM10.2613 6.75C10.6279 6.37667 10.8113 5.88 10.8113 5.26C10.8113 4.64 10.6279 4.14333 10.2613 3.77C9.90125 3.39667 9.46458 3.21 8.95125 3.21C8.44458 3.21 8.00792 3.39 7.64125 3.75C7.28125 4.11 7.10125 4.6 7.10125 5.22C7.10125 5.84 7.28458 6.34333 7.65125 6.73C8.01792 7.11667 8.45458 7.31 8.96125 7.31C9.46792 7.31 9.90125 7.12333 10.2613 6.75ZM8.79125 8.09C8.04458 8.09 7.42125 7.82333 6.92125 7.29C6.42125 6.75 6.17125 6.06333 6.17125 5.23C6.17125 4.39 6.41792 3.71333 6.91125 3.2C7.41125 2.68 8.03792 2.42 8.79125 2.42C9.25792 2.42 9.66458 2.53 10.0113 2.75C10.3646 2.97 10.6313 3.25667 10.8113 3.61V2.51H11.7313V8H10.8113V6.88C10.6313 7.24 10.3646 7.53333 10.0113 7.76C9.66458 7.98 9.25792 8.09 8.79125 8.09ZM13.2305 8V0.6H14.1405V8H13.2305ZM16.5526 2.51V3.4C16.9259 2.74667 17.5226 2.42 18.3426 2.42C18.7626 2.42 19.1426 2.52333 19.4826 2.73C19.8226 2.93 20.0792 3.22333 20.2526 3.61C20.4526 3.23667 20.7226 2.94667 21.0626 2.74C21.4092 2.52667 21.8026 2.42 22.2426 2.42C22.8626 2.42 23.3759 2.62333 23.7826 3.03C24.1892 3.43 24.3926 4.00333 24.3926 4.75V8H23.4926V4.9C23.4926 4.34667 23.3559 3.92667 23.0826 3.64C22.8159 3.35333 22.4492 3.21 21.9826 3.21C21.5159 3.21 21.1459 3.35333 20.8726 3.64C20.6059 3.92667 20.4726 4.34667 20.4726 4.9V8H19.5726V4.9C19.5726 4.34667 19.4392 3.92667 19.1726 3.64C18.9059 3.35333 18.5359 3.21 18.0626 3.21C17.5959 3.21 17.2259 3.35333 16.9526 3.64C16.6859 3.92667 16.5526 4.34667 16.5526 4.9V8H15.6426V2.51H16.5526ZM28.5259 1.8V1.07H33.0959V1.8H31.2659V8H30.3559V1.8H28.5259ZM35.2049 2.51V3.44C35.5316 2.76 36.0883 2.42 36.8749 2.42V3.37H36.6349C36.1683 3.37 35.8116 3.49333 35.5649 3.74C35.3249 3.98 35.2049 4.4 35.2049 5V8H34.2949V2.51H35.2049ZM40.2766 8.09C39.4899 8.09 38.8499 7.83 38.3566 7.31C37.8632 6.79 37.6166 6.10333 37.6166 5.25C37.6166 4.39667 37.8666 3.71333 38.3666 3.2C38.8666 2.68 39.5132 2.42 40.3066 2.42C41.1066 2.42 41.7466 2.66667 42.2266 3.16C42.7132 3.64667 42.9566 4.27 42.9566 5.03C42.9566 5.22333 42.9432 5.40333 42.9166 5.57H38.5466C38.5732 6.11667 38.7432 6.55 39.0566 6.87C39.3766 7.18333 39.7832 7.34 40.2766 7.34C40.6499 7.34 40.9632 7.25667 41.2166 7.09C41.4766 6.92333 41.6666 6.70333 41.7866 6.43H42.7666C42.5932 6.91 42.2932 7.30667 41.8666 7.62C41.4466 7.93333 40.9166 8.09 40.2766 8.09ZM42.0066 4.91C41.9999 4.38333 41.8332 3.96333 41.5066 3.65C41.1799 3.33 40.7732 3.17 40.2866 3.17C39.8066 3.17 39.4066 3.32667 39.0866 3.64C38.7666 3.94667 38.5899 4.37 38.5566 4.91H42.0066ZM46.3898 8.09C45.6032 8.09 44.9632 7.83 44.4698 7.31C43.9765 6.79 43.7298 6.10333 43.7298 5.25C43.7298 4.39667 43.9798 3.71333 44.4798 3.2C44.9798 2.68 45.6265 2.42 46.4198 2.42C47.2198 2.42 47.8598 2.66667 48.3398 3.16C48.8265 3.64667 49.0698 4.27 49.0698 5.03C49.0698 5.22333 49.0565 5.40333 49.0298 5.57H44.6598C44.6865 6.11667 44.8565 6.55 45.1698 6.87C45.4898 7.18333 45.8965 7.34 46.3898 7.34C46.7632 7.34 47.0765 7.25667 47.3298 7.09C47.5898 6.92333 47.7798 6.70333 47.8998 6.43H48.8798C48.7065 6.91 48.4065 7.30667 47.9798 7.62C47.5598 7.93333 47.0298 8.09 46.3898 8.09ZM48.1198 4.91C48.1132 4.38333 47.9465 3.96333 47.6198 3.65C47.2932 3.33 46.8865 3.17 46.3998 3.17C45.9198 3.17 45.5198 3.32667 45.1998 3.64C44.8798 3.94667 44.7032 4.37 44.6698 4.91H48.1198Z" fill="#633820"/>
</svg>
