<svg width="23" height="22" viewBox="0 0 23 22" fill="none" xmlns="http://www.w3.org/2000/svg">
<path d="M2.56615 6.64203L5.3924 8.87328M2.53989 15.8295L5.37489 13.5983M15.2449 16.652L18.0711 18.8833M21.5711 11.262C21.5692 11.8492 21.5136 12.435 21.4049 13.012C21.0207 15.1836 19.9319 17.1681 18.3069 18.6589C16.6819 20.1497 14.6111 21.0638 12.4146 21.2599C10.2181 21.456 8.01811 20.9232 6.15472 19.7438C4.29133 18.5644 2.86826 16.8041 2.10545 14.735C1.34264 12.6659 1.28255 10.4031 1.93449 8.29641C2.58642 6.18972 3.91408 4.3564 5.71225 3.07979C7.51043 1.80319 9.67902 1.15437 11.8829 1.23363C14.0867 1.31289 16.2031 2.1158 17.9049 3.51827L15.4374 6.01202C14.3075 5.15498 12.9268 4.69374 11.5086 4.69952C10.2857 4.69815 9.08677 5.03851 8.04698 5.68222C7.00719 6.32592 6.16795 7.24735 5.62392 8.34259C5.07989 9.43783 4.85271 10.6633 4.96801 11.8808C5.08331 13.0982 5.5365 14.2592 6.27647 15.2329C7.01643 16.2065 8.01373 16.954 9.15587 17.3911C10.298 17.8281 11.5396 17.9374 12.7405 17.7065C13.9414 17.4755 15.0539 16.9137 15.9525 16.0842C16.8511 15.2547 17.5 14.1907 17.8261 13.012H11.9461V9.51202H21.4049C21.5091 10.0897 21.5647 10.6751 21.5711 11.262Z" stroke="white" stroke-linecap="round" stroke-linejoin="round"/>
</svg>
